%TF.GenerationSoftware,KiCad,Pcbnew,(5.1.8)-1*%
%TF.CreationDate,2021-06-16T10:38:21+02:00*%
%TF.ProjectId,p_dale_ble,70e96461-6c65-45f6-926c-652e6b696361,rev?*%
%TF.SameCoordinates,Original*%
%TF.FileFunction,Legend,Top*%
%TF.FilePolarity,Positive*%
%FSLAX46Y46*%
G04 Gerber Fmt 4.6, Leading zero omitted, Abs format (unit mm)*
G04 Created by KiCad (PCBNEW (5.1.8)-1) date 2021-06-16 10:38:21*
%MOMM*%
%LPD*%
G01*
G04 APERTURE LIST*
%ADD10C,0.150000*%
%ADD11C,0.100000*%
%ADD12C,0.300000*%
%ADD13C,0.120000*%
G04 APERTURE END LIST*
D10*
X99210952Y-99512380D02*
X98877619Y-99036190D01*
X98639523Y-99512380D02*
X98639523Y-98512380D01*
X99020476Y-98512380D01*
X99115714Y-98560000D01*
X99163333Y-98607619D01*
X99210952Y-98702857D01*
X99210952Y-98845714D01*
X99163333Y-98940952D01*
X99115714Y-98988571D01*
X99020476Y-99036190D01*
X98639523Y-99036190D01*
X99639523Y-99512380D02*
X99639523Y-98845714D01*
X99639523Y-98512380D02*
X99591904Y-98560000D01*
X99639523Y-98607619D01*
X99687142Y-98560000D01*
X99639523Y-98512380D01*
X99639523Y-98607619D01*
X100544285Y-98845714D02*
X100544285Y-99655238D01*
X100496666Y-99750476D01*
X100449047Y-99798095D01*
X100353809Y-99845714D01*
X100210952Y-99845714D01*
X100115714Y-99798095D01*
X100544285Y-99464761D02*
X100449047Y-99512380D01*
X100258571Y-99512380D01*
X100163333Y-99464761D01*
X100115714Y-99417142D01*
X100068095Y-99321904D01*
X100068095Y-99036190D01*
X100115714Y-98940952D01*
X100163333Y-98893333D01*
X100258571Y-98845714D01*
X100449047Y-98845714D01*
X100544285Y-98893333D01*
X101020476Y-99512380D02*
X101020476Y-98512380D01*
X101449047Y-99512380D02*
X101449047Y-98988571D01*
X101401428Y-98893333D01*
X101306190Y-98845714D01*
X101163333Y-98845714D01*
X101068095Y-98893333D01*
X101020476Y-98940952D01*
X101782380Y-98845714D02*
X102163333Y-98845714D01*
X101925238Y-98512380D02*
X101925238Y-99369523D01*
X101972857Y-99464761D01*
X102068095Y-99512380D01*
X102163333Y-99512380D01*
X99639523Y-94432380D02*
X99163333Y-94432380D01*
X99163333Y-93432380D01*
X100353809Y-94384761D02*
X100258571Y-94432380D01*
X100068095Y-94432380D01*
X99972857Y-94384761D01*
X99925238Y-94289523D01*
X99925238Y-93908571D01*
X99972857Y-93813333D01*
X100068095Y-93765714D01*
X100258571Y-93765714D01*
X100353809Y-93813333D01*
X100401428Y-93908571D01*
X100401428Y-94003809D01*
X99925238Y-94099047D01*
X100687142Y-93765714D02*
X101068095Y-93765714D01*
X100830000Y-94432380D02*
X100830000Y-93575238D01*
X100877619Y-93480000D01*
X100972857Y-93432380D01*
X101068095Y-93432380D01*
X101258571Y-93765714D02*
X101639523Y-93765714D01*
X101401428Y-93432380D02*
X101401428Y-94289523D01*
X101449047Y-94384761D01*
X101544285Y-94432380D01*
X101639523Y-94432380D01*
X99957619Y-90622380D02*
X99957619Y-89622380D01*
X100290952Y-90336666D01*
X100624285Y-89622380D01*
X100624285Y-90622380D01*
X101100476Y-90622380D02*
X101100476Y-89955714D01*
X101100476Y-89622380D02*
X101052857Y-89670000D01*
X101100476Y-89717619D01*
X101148095Y-89670000D01*
X101100476Y-89622380D01*
X101100476Y-89717619D01*
X102005238Y-90622380D02*
X102005238Y-89622380D01*
X102005238Y-90574761D02*
X101910000Y-90622380D01*
X101719523Y-90622380D01*
X101624285Y-90574761D01*
X101576666Y-90527142D01*
X101529047Y-90431904D01*
X101529047Y-90146190D01*
X101576666Y-90050952D01*
X101624285Y-90003333D01*
X101719523Y-89955714D01*
X101910000Y-89955714D01*
X102005238Y-90003333D01*
X102910000Y-90622380D02*
X102910000Y-89622380D01*
X102910000Y-90574761D02*
X102814761Y-90622380D01*
X102624285Y-90622380D01*
X102529047Y-90574761D01*
X102481428Y-90527142D01*
X102433809Y-90431904D01*
X102433809Y-90146190D01*
X102481428Y-90050952D01*
X102529047Y-90003333D01*
X102624285Y-89955714D01*
X102814761Y-89955714D01*
X102910000Y-90003333D01*
X103529047Y-90622380D02*
X103433809Y-90574761D01*
X103386190Y-90479523D01*
X103386190Y-89622380D01*
X104290952Y-90574761D02*
X104195714Y-90622380D01*
X104005238Y-90622380D01*
X103910000Y-90574761D01*
X103862380Y-90479523D01*
X103862380Y-90098571D01*
X103910000Y-90003333D01*
X104005238Y-89955714D01*
X104195714Y-89955714D01*
X104290952Y-90003333D01*
X104338571Y-90098571D01*
X104338571Y-90193809D01*
X103862380Y-90289047D01*
X106243333Y-89574761D02*
X105386190Y-90860476D01*
X107529047Y-89622380D02*
X107719523Y-89622380D01*
X107814761Y-89670000D01*
X107910000Y-89765238D01*
X107957619Y-89955714D01*
X107957619Y-90289047D01*
X107910000Y-90479523D01*
X107814761Y-90574761D01*
X107719523Y-90622380D01*
X107529047Y-90622380D01*
X107433809Y-90574761D01*
X107338571Y-90479523D01*
X107290952Y-90289047D01*
X107290952Y-89955714D01*
X107338571Y-89765238D01*
X107433809Y-89670000D01*
X107529047Y-89622380D01*
X108243333Y-89955714D02*
X108624285Y-89955714D01*
X108386190Y-89622380D02*
X108386190Y-90479523D01*
X108433809Y-90574761D01*
X108529047Y-90622380D01*
X108624285Y-90622380D01*
X108957619Y-90622380D02*
X108957619Y-89622380D01*
X109386190Y-90622380D02*
X109386190Y-90098571D01*
X109338571Y-90003333D01*
X109243333Y-89955714D01*
X109100476Y-89955714D01*
X109005238Y-90003333D01*
X108957619Y-90050952D01*
X110243333Y-90574761D02*
X110148095Y-90622380D01*
X109957619Y-90622380D01*
X109862380Y-90574761D01*
X109814761Y-90479523D01*
X109814761Y-90098571D01*
X109862380Y-90003333D01*
X109957619Y-89955714D01*
X110148095Y-89955714D01*
X110243333Y-90003333D01*
X110290952Y-90098571D01*
X110290952Y-90193809D01*
X109814761Y-90289047D01*
X110719523Y-90622380D02*
X110719523Y-89955714D01*
X110719523Y-90146190D02*
X110767142Y-90050952D01*
X110814761Y-90003333D01*
X110910000Y-89955714D01*
X111005238Y-89955714D01*
X134072380Y-118919047D02*
X134786666Y-118919047D01*
X134929523Y-118966666D01*
X135024761Y-119061904D01*
X135072380Y-119204761D01*
X135072380Y-119300000D01*
X135072380Y-117966666D02*
X135072380Y-118442857D01*
X134072380Y-118442857D01*
X134977142Y-117061904D02*
X135024761Y-117109523D01*
X135072380Y-117252380D01*
X135072380Y-117347619D01*
X135024761Y-117490476D01*
X134929523Y-117585714D01*
X134834285Y-117633333D01*
X134643809Y-117680952D01*
X134500952Y-117680952D01*
X134310476Y-117633333D01*
X134215238Y-117585714D01*
X134120000Y-117490476D01*
X134072380Y-117347619D01*
X134072380Y-117252380D01*
X134120000Y-117109523D01*
X134167619Y-117061904D01*
X134072380Y-116347619D02*
X134786666Y-116347619D01*
X134929523Y-116395238D01*
X135024761Y-116490476D01*
X135072380Y-116633333D01*
X135072380Y-116728571D01*
X135072380Y-115395238D02*
X135072380Y-115871428D01*
X134072380Y-115871428D01*
X134977142Y-114490476D02*
X135024761Y-114538095D01*
X135072380Y-114680952D01*
X135072380Y-114776190D01*
X135024761Y-114919047D01*
X134929523Y-115014285D01*
X134834285Y-115061904D01*
X134643809Y-115109523D01*
X134500952Y-115109523D01*
X134310476Y-115061904D01*
X134215238Y-115014285D01*
X134120000Y-114919047D01*
X134072380Y-114776190D01*
X134072380Y-114680952D01*
X134120000Y-114538095D01*
X134167619Y-114490476D01*
X134072380Y-113776190D02*
X134786666Y-113776190D01*
X134929523Y-113823809D01*
X135024761Y-113919047D01*
X135072380Y-114061904D01*
X135072380Y-114157142D01*
X135072380Y-112823809D02*
X135072380Y-113300000D01*
X134072380Y-113300000D01*
X134977142Y-111919047D02*
X135024761Y-111966666D01*
X135072380Y-112109523D01*
X135072380Y-112204761D01*
X135024761Y-112347619D01*
X134929523Y-112442857D01*
X134834285Y-112490476D01*
X134643809Y-112538095D01*
X134500952Y-112538095D01*
X134310476Y-112490476D01*
X134215238Y-112442857D01*
X134120000Y-112347619D01*
X134072380Y-112204761D01*
X134072380Y-112109523D01*
X134120000Y-111966666D01*
X134167619Y-111919047D01*
X134072380Y-111204761D02*
X134786666Y-111204761D01*
X134929523Y-111252380D01*
X135024761Y-111347619D01*
X135072380Y-111490476D01*
X135072380Y-111585714D01*
X135072380Y-110252380D02*
X135072380Y-110728571D01*
X134072380Y-110728571D01*
X134977142Y-109347619D02*
X135024761Y-109395238D01*
X135072380Y-109538095D01*
X135072380Y-109633333D01*
X135024761Y-109776190D01*
X134929523Y-109871428D01*
X134834285Y-109919047D01*
X134643809Y-109966666D01*
X134500952Y-109966666D01*
X134310476Y-109919047D01*
X134215238Y-109871428D01*
X134120000Y-109776190D01*
X134072380Y-109633333D01*
X134072380Y-109538095D01*
X134120000Y-109395238D01*
X134167619Y-109347619D01*
D11*
G36*
X137160000Y-133350000D02*
G01*
X132080000Y-133350000D01*
X132080000Y-129540000D01*
X137160000Y-129540000D01*
X137160000Y-133350000D01*
G37*
X137160000Y-133350000D02*
X132080000Y-133350000D01*
X132080000Y-129540000D01*
X137160000Y-129540000D01*
X137160000Y-133350000D01*
D12*
X92972857Y-83707857D02*
X93187142Y-83779285D01*
X93258571Y-83850714D01*
X93330000Y-83993571D01*
X93330000Y-84207857D01*
X93258571Y-84350714D01*
X93187142Y-84422142D01*
X93044285Y-84493571D01*
X92472857Y-84493571D01*
X92472857Y-82993571D01*
X92972857Y-82993571D01*
X93115714Y-83065000D01*
X93187142Y-83136428D01*
X93258571Y-83279285D01*
X93258571Y-83422142D01*
X93187142Y-83565000D01*
X93115714Y-83636428D01*
X92972857Y-83707857D01*
X92472857Y-83707857D01*
X93901428Y-84065000D02*
X94615714Y-84065000D01*
X93758571Y-84493571D02*
X94258571Y-82993571D01*
X94758571Y-84493571D01*
X95258571Y-84493571D02*
X95258571Y-82993571D01*
X95258571Y-83707857D02*
X96115714Y-83707857D01*
X96115714Y-84493571D02*
X96115714Y-82993571D01*
X96830000Y-84493571D02*
X96830000Y-82993571D01*
X97544285Y-84493571D02*
X97544285Y-82993571D01*
X98401428Y-84493571D01*
X98401428Y-82993571D01*
X100258571Y-84493571D02*
X100258571Y-82993571D01*
X100758571Y-84065000D01*
X101258571Y-82993571D01*
X101258571Y-84493571D01*
X102615714Y-84493571D02*
X102615714Y-83707857D01*
X102544285Y-83565000D01*
X102401428Y-83493571D01*
X102115714Y-83493571D01*
X101972857Y-83565000D01*
X102615714Y-84422142D02*
X102472857Y-84493571D01*
X102115714Y-84493571D01*
X101972857Y-84422142D01*
X101901428Y-84279285D01*
X101901428Y-84136428D01*
X101972857Y-83993571D01*
X102115714Y-83922142D01*
X102472857Y-83922142D01*
X102615714Y-83850714D01*
X103115714Y-83493571D02*
X103687142Y-83493571D01*
X103330000Y-82993571D02*
X103330000Y-84279285D01*
X103401428Y-84422142D01*
X103544285Y-84493571D01*
X103687142Y-84493571D01*
X104187142Y-84493571D02*
X104187142Y-82993571D01*
X104830000Y-84493571D02*
X104830000Y-83707857D01*
X104758571Y-83565000D01*
X104615714Y-83493571D01*
X104401428Y-83493571D01*
X104258571Y-83565000D01*
X104187142Y-83636428D01*
X105544285Y-84493571D02*
X105544285Y-83493571D01*
X105544285Y-82993571D02*
X105472857Y-83065000D01*
X105544285Y-83136428D01*
X105615714Y-83065000D01*
X105544285Y-82993571D01*
X105544285Y-83136428D01*
X106830000Y-84422142D02*
X106687142Y-84493571D01*
X106401428Y-84493571D01*
X106258571Y-84422142D01*
X106187142Y-84279285D01*
X106187142Y-83707857D01*
X106258571Y-83565000D01*
X106401428Y-83493571D01*
X106687142Y-83493571D01*
X106830000Y-83565000D01*
X106901428Y-83707857D01*
X106901428Y-83850714D01*
X106187142Y-83993571D01*
X108187142Y-83493571D02*
X108187142Y-84493571D01*
X107544285Y-83493571D02*
X107544285Y-84279285D01*
X107615714Y-84422142D01*
X107758571Y-84493571D01*
X107972857Y-84493571D01*
X108115714Y-84422142D01*
X108187142Y-84350714D01*
X93937142Y-86257857D02*
X93437142Y-86257857D01*
X93437142Y-87043571D02*
X93437142Y-85543571D01*
X94151428Y-85543571D01*
X94937142Y-87043571D02*
X94794285Y-86972142D01*
X94722857Y-86829285D01*
X94722857Y-85543571D01*
X95508571Y-87043571D02*
X95508571Y-86043571D01*
X95508571Y-85543571D02*
X95437142Y-85615000D01*
X95508571Y-85686428D01*
X95580000Y-85615000D01*
X95508571Y-85543571D01*
X95508571Y-85686428D01*
X96222857Y-86043571D02*
X96222857Y-87543571D01*
X96222857Y-86115000D02*
X96365714Y-86043571D01*
X96651428Y-86043571D01*
X96794285Y-86115000D01*
X96865714Y-86186428D01*
X96937142Y-86329285D01*
X96937142Y-86757857D01*
X96865714Y-86900714D01*
X96794285Y-86972142D01*
X96651428Y-87043571D01*
X96365714Y-87043571D01*
X96222857Y-86972142D01*
X98722857Y-87043571D02*
X98722857Y-85543571D01*
X99294285Y-85543571D01*
X99437142Y-85615000D01*
X99508571Y-85686428D01*
X99580000Y-85829285D01*
X99580000Y-86043571D01*
X99508571Y-86186428D01*
X99437142Y-86257857D01*
X99294285Y-86329285D01*
X98722857Y-86329285D01*
X100865714Y-87043571D02*
X100865714Y-86257857D01*
X100794285Y-86115000D01*
X100651428Y-86043571D01*
X100365714Y-86043571D01*
X100222857Y-86115000D01*
X100865714Y-86972142D02*
X100722857Y-87043571D01*
X100365714Y-87043571D01*
X100222857Y-86972142D01*
X100151428Y-86829285D01*
X100151428Y-86686428D01*
X100222857Y-86543571D01*
X100365714Y-86472142D01*
X100722857Y-86472142D01*
X100865714Y-86400714D01*
X102222857Y-86043571D02*
X102222857Y-87257857D01*
X102151428Y-87400714D01*
X102080000Y-87472142D01*
X101937142Y-87543571D01*
X101722857Y-87543571D01*
X101580000Y-87472142D01*
X102222857Y-86972142D02*
X102080000Y-87043571D01*
X101794285Y-87043571D01*
X101651428Y-86972142D01*
X101580000Y-86900714D01*
X101508571Y-86757857D01*
X101508571Y-86329285D01*
X101580000Y-86186428D01*
X101651428Y-86115000D01*
X101794285Y-86043571D01*
X102080000Y-86043571D01*
X102222857Y-86115000D01*
X103508571Y-86972142D02*
X103365714Y-87043571D01*
X103080000Y-87043571D01*
X102937142Y-86972142D01*
X102865714Y-86829285D01*
X102865714Y-86257857D01*
X102937142Y-86115000D01*
X103080000Y-86043571D01*
X103365714Y-86043571D01*
X103508571Y-86115000D01*
X103580000Y-86257857D01*
X103580000Y-86400714D01*
X102865714Y-86543571D01*
X105222857Y-86043571D02*
X105580000Y-87043571D01*
X105937142Y-86043571D01*
X107294285Y-87043571D02*
X106437142Y-87043571D01*
X106865714Y-87043571D02*
X106865714Y-85543571D01*
X106722857Y-85757857D01*
X106580000Y-85900714D01*
X106437142Y-85972142D01*
D13*
%TO.C,U1*%
X96580000Y-110430000D02*
X93920000Y-110430000D01*
X96580000Y-130810000D02*
X96580000Y-110430000D01*
X93920000Y-130810000D02*
X93920000Y-110430000D01*
X96580000Y-130810000D02*
X93920000Y-130810000D01*
X96580000Y-132080000D02*
X96580000Y-133410000D01*
X96580000Y-133410000D02*
X95250000Y-133410000D01*
%TO.C,J3*%
X115470000Y-75370000D02*
X123290000Y-75370000D01*
X121490000Y-84690000D02*
X121490000Y-85120000D01*
X115470000Y-75370000D02*
X115470000Y-77320000D01*
X115470000Y-79540000D02*
X115470000Y-82770000D01*
X117270000Y-84690000D02*
X116190000Y-84690000D01*
X122570000Y-84690000D02*
X121490000Y-84690000D01*
X123290000Y-79540000D02*
X123290000Y-82770000D01*
X123290000Y-75370000D02*
X123290000Y-77320000D01*
%TO.C,A1*%
X143640000Y-91310000D02*
X125600000Y-91310000D01*
X143640000Y-134750000D02*
X143640000Y-91310000D01*
X125600000Y-134750000D02*
X143640000Y-134750000D01*
X128270000Y-132080000D02*
X125600000Y-132080000D01*
X128270000Y-96520000D02*
X128270000Y-132080000D01*
X128270000Y-96520000D02*
X125600000Y-96520000D01*
X140970000Y-132080000D02*
X143640000Y-132080000D01*
X140970000Y-93980000D02*
X140970000Y-132080000D01*
X140970000Y-93980000D02*
X143640000Y-93980000D01*
X125600000Y-91310000D02*
X125600000Y-93980000D01*
X125600000Y-96520000D02*
X125600000Y-134750000D01*
X128270000Y-93980000D02*
X125600000Y-93980000D01*
X128270000Y-96520000D02*
X128270000Y-93980000D01*
%TO.C,J2*%
X109000000Y-97670000D02*
X109000000Y-99000000D01*
X107670000Y-97670000D02*
X109000000Y-97670000D01*
X106400000Y-97670000D02*
X106400000Y-100330000D01*
X106400000Y-100330000D02*
X103800000Y-100330000D01*
X106400000Y-97670000D02*
X103800000Y-97670000D01*
X103800000Y-97670000D02*
X103800000Y-100330000D01*
%TO.C,J1*%
X109000000Y-93020000D02*
X109000000Y-94350000D01*
X107670000Y-93020000D02*
X109000000Y-93020000D01*
X106400000Y-93020000D02*
X106400000Y-95680000D01*
X106400000Y-95680000D02*
X103800000Y-95680000D01*
X106400000Y-93020000D02*
X103800000Y-93020000D01*
X103800000Y-93020000D02*
X103800000Y-95680000D01*
%TO.C,U1*%
D10*
X94488095Y-133862380D02*
X94488095Y-134671904D01*
X94535714Y-134767142D01*
X94583333Y-134814761D01*
X94678571Y-134862380D01*
X94869047Y-134862380D01*
X94964285Y-134814761D01*
X95011904Y-134767142D01*
X95059523Y-134671904D01*
X95059523Y-133862380D01*
X96059523Y-134862380D02*
X95488095Y-134862380D01*
X95773809Y-134862380D02*
X95773809Y-133862380D01*
X95678571Y-134005238D01*
X95583333Y-134100476D01*
X95488095Y-134148095D01*
%TO.C,J3*%
X119046666Y-85732380D02*
X119046666Y-86446666D01*
X118999047Y-86589523D01*
X118903809Y-86684761D01*
X118760952Y-86732380D01*
X118665714Y-86732380D01*
X119427619Y-85732380D02*
X120046666Y-85732380D01*
X119713333Y-86113333D01*
X119856190Y-86113333D01*
X119951428Y-86160952D01*
X119999047Y-86208571D01*
X120046666Y-86303809D01*
X120046666Y-86541904D01*
X119999047Y-86637142D01*
X119951428Y-86684761D01*
X119856190Y-86732380D01*
X119570476Y-86732380D01*
X119475238Y-86684761D01*
X119427619Y-86637142D01*
%TO.C,A1*%
X133905714Y-136056666D02*
X134381904Y-136056666D01*
X133810476Y-136342380D02*
X134143809Y-135342380D01*
X134477142Y-136342380D01*
X135334285Y-136342380D02*
X134762857Y-136342380D01*
X135048571Y-136342380D02*
X135048571Y-135342380D01*
X134953333Y-135485238D01*
X134858095Y-135580476D01*
X134762857Y-135628095D01*
%TD*%
M02*
