%FSLAX45Y45*%
G04 Gerber Fmt 4.5, Leading zero omitted, Abs format (unit mm)*
G04 Created by KiCad (PCBNEW (5.1.8)-1) date 2021-06-13 18:19:14*
%MOMM*%
%LPD*%
G01*
G04 APERTURE LIST*
%TA.AperFunction,Profile*%
%ADD10C,0.050000*%
%TD*%
%ADD11C,0.200000*%
%ADD12C,0.300000*%
G04 APERTURE END LIST*
D10*
X8636000Y-7747000D02*
X8636000Y-13970000D01*
X14605000Y-7747000D02*
X8636000Y-7747000D01*
X14605000Y-13970000D02*
X14605000Y-7747000D01*
X8636000Y-13970000D02*
X14605000Y-13970000D01*
D11*
X11277000Y-9880000D02*
X11317000Y-9920000D01*
X11317000Y-9880000D02*
X11277000Y-9920000D01*
X11410000Y-9632000D02*
X11450000Y-9672000D01*
X11450000Y-9632000D02*
X11410000Y-9672000D01*
X10563000Y-9900000D02*
G75*
G03*
X10563000Y-9900000I-50000J0D01*
G01*
X10817000Y-9900000D02*
G75*
G03*
X10817000Y-9900000I-50000J0D01*
G01*
X12750000Y-9525000D02*
G75*
G03*
X12750000Y-9525000I-50000J0D01*
G01*
X12750000Y-9779000D02*
G75*
G03*
X12750000Y-9779000I-50000J0D01*
G01*
X12750000Y-10033000D02*
G75*
G03*
X12750000Y-10033000I-50000J0D01*
G01*
X12750000Y-10287000D02*
G75*
G03*
X12750000Y-10287000I-50000J0D01*
G01*
X12750000Y-10541000D02*
G75*
G03*
X12750000Y-10541000I-50000J0D01*
G01*
X12750000Y-10795000D02*
G75*
G03*
X12750000Y-10795000I-50000J0D01*
G01*
X12750000Y-11049000D02*
G75*
G03*
X12750000Y-11049000I-50000J0D01*
G01*
X12750000Y-11303000D02*
G75*
G03*
X12750000Y-11303000I-50000J0D01*
G01*
X12750000Y-11557000D02*
G75*
G03*
X12750000Y-11557000I-50000J0D01*
G01*
X12750000Y-11811000D02*
G75*
G03*
X12750000Y-11811000I-50000J0D01*
G01*
X12750000Y-12065000D02*
G75*
G03*
X12750000Y-12065000I-50000J0D01*
G01*
X12750000Y-12319000D02*
G75*
G03*
X12750000Y-12319000I-50000J0D01*
G01*
X12750000Y-12573000D02*
G75*
G03*
X12750000Y-12573000I-50000J0D01*
G01*
X12750000Y-12827000D02*
G75*
G03*
X12750000Y-12827000I-50000J0D01*
G01*
X12750000Y-13081000D02*
G75*
G03*
X12750000Y-13081000I-50000J0D01*
G01*
X14274000Y-9525000D02*
G75*
G03*
X14274000Y-9525000I-50000J0D01*
G01*
X14274000Y-9779000D02*
G75*
G03*
X14274000Y-9779000I-50000J0D01*
G01*
X14274000Y-10033000D02*
G75*
G03*
X14274000Y-10033000I-50000J0D01*
G01*
X14274000Y-10287000D02*
G75*
G03*
X14274000Y-10287000I-50000J0D01*
G01*
X14274000Y-10541000D02*
G75*
G03*
X14274000Y-10541000I-50000J0D01*
G01*
X14274000Y-10795000D02*
G75*
G03*
X14274000Y-10795000I-50000J0D01*
G01*
X14274000Y-11049000D02*
G75*
G03*
X14274000Y-11049000I-50000J0D01*
G01*
X14274000Y-11303000D02*
G75*
G03*
X14274000Y-11303000I-50000J0D01*
G01*
X14274000Y-11557000D02*
G75*
G03*
X14274000Y-11557000I-50000J0D01*
G01*
X14274000Y-11811000D02*
G75*
G03*
X14274000Y-11811000I-50000J0D01*
G01*
X14274000Y-12065000D02*
G75*
G03*
X14274000Y-12065000I-50000J0D01*
G01*
X14274000Y-12319000D02*
G75*
G03*
X14274000Y-12319000I-50000J0D01*
G01*
X14274000Y-12573000D02*
G75*
G03*
X14274000Y-12573000I-50000J0D01*
G01*
X14274000Y-12827000D02*
G75*
G03*
X14274000Y-12827000I-50000J0D01*
G01*
X14274000Y-13081000D02*
G75*
G03*
X14274000Y-13081000I-50000J0D01*
G01*
X9575000Y-11176000D02*
G75*
G03*
X9575000Y-11176000I-50000J0D01*
G01*
X9575000Y-11430000D02*
G75*
G03*
X9575000Y-11430000I-50000J0D01*
G01*
X9575000Y-11684000D02*
G75*
G03*
X9575000Y-11684000I-50000J0D01*
G01*
X9575000Y-11938000D02*
G75*
G03*
X9575000Y-11938000I-50000J0D01*
G01*
X9575000Y-12192000D02*
G75*
G03*
X9575000Y-12192000I-50000J0D01*
G01*
X9575000Y-12446000D02*
G75*
G03*
X9575000Y-12446000I-50000J0D01*
G01*
X9575000Y-12700000D02*
G75*
G03*
X9575000Y-12700000I-50000J0D01*
G01*
X9575000Y-12954000D02*
G75*
G03*
X9575000Y-12954000I-50000J0D01*
G01*
X9575000Y-13208000D02*
G75*
G03*
X9575000Y-13208000I-50000J0D01*
G01*
X10563000Y-9435000D02*
G75*
G03*
X10563000Y-9435000I-50000J0D01*
G01*
X10817000Y-9435000D02*
G75*
G03*
X10817000Y-9435000I-50000J0D01*
G01*
X11718000Y-8078000D02*
X11718000Y-8178000D01*
X11668000Y-8128000D02*
X11768000Y-8128000D01*
X12158000Y-8078000D02*
X12158000Y-8178000D01*
X12108000Y-8128000D02*
X12208000Y-8128000D01*
D12*
X8919928Y-14438214D02*
X8919928Y-14138214D01*
X8991357Y-14138214D01*
X9034214Y-14152500D01*
X9062786Y-14181071D01*
X9077071Y-14209643D01*
X9091357Y-14266786D01*
X9091357Y-14309643D01*
X9077071Y-14366786D01*
X9062786Y-14395357D01*
X9034214Y-14423929D01*
X8991357Y-14438214D01*
X8919928Y-14438214D01*
X9219928Y-14438214D02*
X9219928Y-14238214D01*
X9219928Y-14295357D02*
X9234214Y-14266786D01*
X9248500Y-14252500D01*
X9277071Y-14238214D01*
X9305643Y-14238214D01*
X9405643Y-14438214D02*
X9405643Y-14238214D01*
X9405643Y-14138214D02*
X9391357Y-14152500D01*
X9405643Y-14166786D01*
X9419928Y-14152500D01*
X9405643Y-14138214D01*
X9405643Y-14166786D01*
X9591357Y-14438214D02*
X9562786Y-14423929D01*
X9548500Y-14395357D01*
X9548500Y-14138214D01*
X9748500Y-14438214D02*
X9719928Y-14423929D01*
X9705643Y-14395357D01*
X9705643Y-14138214D01*
X10091357Y-14438214D02*
X10091357Y-14138214D01*
X10191357Y-14352500D01*
X10291357Y-14138214D01*
X10291357Y-14438214D01*
X10562786Y-14438214D02*
X10562786Y-14281071D01*
X10548500Y-14252500D01*
X10519928Y-14238214D01*
X10462786Y-14238214D01*
X10434214Y-14252500D01*
X10562786Y-14423929D02*
X10534214Y-14438214D01*
X10462786Y-14438214D01*
X10434214Y-14423929D01*
X10419928Y-14395357D01*
X10419928Y-14366786D01*
X10434214Y-14338214D01*
X10462786Y-14323929D01*
X10534214Y-14323929D01*
X10562786Y-14309643D01*
X10705643Y-14238214D02*
X10705643Y-14538214D01*
X10705643Y-14252500D02*
X10734214Y-14238214D01*
X10791357Y-14238214D01*
X10819928Y-14252500D01*
X10834214Y-14266786D01*
X10848500Y-14295357D01*
X10848500Y-14381071D01*
X10834214Y-14409643D01*
X10819928Y-14423929D01*
X10791357Y-14438214D01*
X10734214Y-14438214D01*
X10705643Y-14423929D01*
X10977071Y-14409643D02*
X10991357Y-14423929D01*
X10977071Y-14438214D01*
X10962786Y-14423929D01*
X10977071Y-14409643D01*
X10977071Y-14438214D01*
X10977071Y-14252500D02*
X10991357Y-14266786D01*
X10977071Y-14281071D01*
X10962786Y-14266786D01*
X10977071Y-14252500D01*
X10977071Y-14281071D01*
X8593500Y-14912500D02*
X8633500Y-14952500D01*
X8633500Y-14912500D02*
X8593500Y-14952500D01*
X8977071Y-14768214D02*
X9005643Y-14768214D01*
X9034214Y-14782500D01*
X9048500Y-14796786D01*
X9062786Y-14825357D01*
X9077071Y-14882500D01*
X9077071Y-14953929D01*
X9062786Y-15011071D01*
X9048500Y-15039643D01*
X9034214Y-15053929D01*
X9005643Y-15068214D01*
X8977071Y-15068214D01*
X8948500Y-15053929D01*
X8934214Y-15039643D01*
X8919928Y-15011071D01*
X8905643Y-14953929D01*
X8905643Y-14882500D01*
X8919928Y-14825357D01*
X8934214Y-14796786D01*
X8948500Y-14782500D01*
X8977071Y-14768214D01*
X9205643Y-15039643D02*
X9219928Y-15053929D01*
X9205643Y-15068214D01*
X9191357Y-15053929D01*
X9205643Y-15039643D01*
X9205643Y-15068214D01*
X9477071Y-14868214D02*
X9477071Y-15068214D01*
X9405643Y-14753929D02*
X9334214Y-14968214D01*
X9519928Y-14968214D01*
X9691357Y-14768214D02*
X9719928Y-14768214D01*
X9748500Y-14782500D01*
X9762786Y-14796786D01*
X9777071Y-14825357D01*
X9791357Y-14882500D01*
X9791357Y-14953929D01*
X9777071Y-15011071D01*
X9762786Y-15039643D01*
X9748500Y-15053929D01*
X9719928Y-15068214D01*
X9691357Y-15068214D01*
X9662786Y-15053929D01*
X9648500Y-15039643D01*
X9634214Y-15011071D01*
X9619928Y-14953929D01*
X9619928Y-14882500D01*
X9634214Y-14825357D01*
X9648500Y-14796786D01*
X9662786Y-14782500D01*
X9691357Y-14768214D01*
X9919928Y-15068214D02*
X9919928Y-14868214D01*
X9919928Y-14896786D02*
X9934214Y-14882500D01*
X9962786Y-14868214D01*
X10005643Y-14868214D01*
X10034214Y-14882500D01*
X10048500Y-14911071D01*
X10048500Y-15068214D01*
X10048500Y-14911071D02*
X10062786Y-14882500D01*
X10091357Y-14868214D01*
X10134214Y-14868214D01*
X10162786Y-14882500D01*
X10177071Y-14911071D01*
X10177071Y-15068214D01*
X10319928Y-15068214D02*
X10319928Y-14868214D01*
X10319928Y-14896786D02*
X10334214Y-14882500D01*
X10362786Y-14868214D01*
X10405643Y-14868214D01*
X10434214Y-14882500D01*
X10448500Y-14911071D01*
X10448500Y-15068214D01*
X10448500Y-14911071D02*
X10462786Y-14882500D01*
X10491357Y-14868214D01*
X10534214Y-14868214D01*
X10562786Y-14882500D01*
X10577071Y-14911071D01*
X10577071Y-15068214D01*
X11162786Y-14753929D02*
X10905643Y-15139643D01*
X11548500Y-14768214D02*
X11577071Y-14768214D01*
X11605643Y-14782500D01*
X11619928Y-14796786D01*
X11634214Y-14825357D01*
X11648500Y-14882500D01*
X11648500Y-14953929D01*
X11634214Y-15011071D01*
X11619928Y-15039643D01*
X11605643Y-15053929D01*
X11577071Y-15068214D01*
X11548500Y-15068214D01*
X11519928Y-15053929D01*
X11505643Y-15039643D01*
X11491357Y-15011071D01*
X11477071Y-14953929D01*
X11477071Y-14882500D01*
X11491357Y-14825357D01*
X11505643Y-14796786D01*
X11519928Y-14782500D01*
X11548500Y-14768214D01*
X11777071Y-15039643D02*
X11791357Y-15053929D01*
X11777071Y-15068214D01*
X11762786Y-15053929D01*
X11777071Y-15039643D01*
X11777071Y-15068214D01*
X11977071Y-14768214D02*
X12005643Y-14768214D01*
X12034214Y-14782500D01*
X12048500Y-14796786D01*
X12062786Y-14825357D01*
X12077071Y-14882500D01*
X12077071Y-14953929D01*
X12062786Y-15011071D01*
X12048500Y-15039643D01*
X12034214Y-15053929D01*
X12005643Y-15068214D01*
X11977071Y-15068214D01*
X11948500Y-15053929D01*
X11934214Y-15039643D01*
X11919928Y-15011071D01*
X11905643Y-14953929D01*
X11905643Y-14882500D01*
X11919928Y-14825357D01*
X11934214Y-14796786D01*
X11948500Y-14782500D01*
X11977071Y-14768214D01*
X12362786Y-15068214D02*
X12191357Y-15068214D01*
X12277071Y-15068214D02*
X12277071Y-14768214D01*
X12248500Y-14811071D01*
X12219928Y-14839643D01*
X12191357Y-14853929D01*
X12619928Y-14768214D02*
X12562786Y-14768214D01*
X12534214Y-14782500D01*
X12519928Y-14796786D01*
X12491357Y-14839643D01*
X12477071Y-14896786D01*
X12477071Y-15011071D01*
X12491357Y-15039643D01*
X12505643Y-15053929D01*
X12534214Y-15068214D01*
X12591357Y-15068214D01*
X12619928Y-15053929D01*
X12634214Y-15039643D01*
X12648500Y-15011071D01*
X12648500Y-14939643D01*
X12634214Y-14911071D01*
X12619928Y-14896786D01*
X12591357Y-14882500D01*
X12534214Y-14882500D01*
X12505643Y-14896786D01*
X12491357Y-14911071D01*
X12477071Y-14939643D01*
X12762786Y-14768214D02*
X12762786Y-14825357D01*
X12877071Y-14768214D02*
X12877071Y-14825357D01*
X13319928Y-15182500D02*
X13305643Y-15168214D01*
X13277071Y-15125357D01*
X13262786Y-15096786D01*
X13248500Y-15053929D01*
X13234214Y-14982500D01*
X13234214Y-14925357D01*
X13248500Y-14853929D01*
X13262786Y-14811071D01*
X13277071Y-14782500D01*
X13305643Y-14739643D01*
X13319928Y-14725357D01*
X13419928Y-14796786D02*
X13434214Y-14782500D01*
X13462786Y-14768214D01*
X13534214Y-14768214D01*
X13562786Y-14782500D01*
X13577071Y-14796786D01*
X13591357Y-14825357D01*
X13591357Y-14853929D01*
X13577071Y-14896786D01*
X13405643Y-15068214D01*
X13591357Y-15068214D01*
X13948500Y-15068214D02*
X13948500Y-14768214D01*
X14077071Y-15068214D02*
X14077071Y-14911071D01*
X14062786Y-14882500D01*
X14034214Y-14868214D01*
X13991357Y-14868214D01*
X13962786Y-14882500D01*
X13948500Y-14896786D01*
X14262786Y-15068214D02*
X14234214Y-15053929D01*
X14219928Y-15039643D01*
X14205643Y-15011071D01*
X14205643Y-14925357D01*
X14219928Y-14896786D01*
X14234214Y-14882500D01*
X14262786Y-14868214D01*
X14305643Y-14868214D01*
X14334214Y-14882500D01*
X14348500Y-14896786D01*
X14362786Y-14925357D01*
X14362786Y-15011071D01*
X14348500Y-15039643D01*
X14334214Y-15053929D01*
X14305643Y-15068214D01*
X14262786Y-15068214D01*
X14534214Y-15068214D02*
X14505643Y-15053929D01*
X14491357Y-15025357D01*
X14491357Y-14768214D01*
X14762786Y-15053929D02*
X14734214Y-15068214D01*
X14677071Y-15068214D01*
X14648500Y-15053929D01*
X14634214Y-15025357D01*
X14634214Y-14911071D01*
X14648500Y-14882500D01*
X14677071Y-14868214D01*
X14734214Y-14868214D01*
X14762786Y-14882500D01*
X14777071Y-14911071D01*
X14777071Y-14939643D01*
X14634214Y-14968214D01*
X14891357Y-15053929D02*
X14919928Y-15068214D01*
X14977071Y-15068214D01*
X15005643Y-15053929D01*
X15019928Y-15025357D01*
X15019928Y-15011071D01*
X15005643Y-14982500D01*
X14977071Y-14968214D01*
X14934214Y-14968214D01*
X14905643Y-14953929D01*
X14891357Y-14925357D01*
X14891357Y-14911071D01*
X14905643Y-14882500D01*
X14934214Y-14868214D01*
X14977071Y-14868214D01*
X15005643Y-14882500D01*
X15119928Y-15182500D02*
X15134214Y-15168214D01*
X15162786Y-15125357D01*
X15177071Y-15096786D01*
X15191357Y-15053929D01*
X15205643Y-14982500D01*
X15205643Y-14925357D01*
X15191357Y-14853929D01*
X15177071Y-14811071D01*
X15162786Y-14782500D01*
X15134214Y-14739643D01*
X15119928Y-14725357D01*
X8633500Y-15328500D02*
G75*
G03*
X8633500Y-15328500I-50000J0D01*
G01*
X9077071Y-15464214D02*
X8905643Y-15464214D01*
X8991357Y-15464214D02*
X8991357Y-15164214D01*
X8962786Y-15207071D01*
X8934214Y-15235643D01*
X8905643Y-15249929D01*
X9205643Y-15435643D02*
X9219928Y-15449929D01*
X9205643Y-15464214D01*
X9191357Y-15449929D01*
X9205643Y-15435643D01*
X9205643Y-15464214D01*
X9405643Y-15164214D02*
X9434214Y-15164214D01*
X9462786Y-15178500D01*
X9477071Y-15192786D01*
X9491357Y-15221357D01*
X9505643Y-15278500D01*
X9505643Y-15349929D01*
X9491357Y-15407071D01*
X9477071Y-15435643D01*
X9462786Y-15449929D01*
X9434214Y-15464214D01*
X9405643Y-15464214D01*
X9377071Y-15449929D01*
X9362786Y-15435643D01*
X9348500Y-15407071D01*
X9334214Y-15349929D01*
X9334214Y-15278500D01*
X9348500Y-15221357D01*
X9362786Y-15192786D01*
X9377071Y-15178500D01*
X9405643Y-15164214D01*
X9691357Y-15164214D02*
X9719928Y-15164214D01*
X9748500Y-15178500D01*
X9762786Y-15192786D01*
X9777071Y-15221357D01*
X9791357Y-15278500D01*
X9791357Y-15349929D01*
X9777071Y-15407071D01*
X9762786Y-15435643D01*
X9748500Y-15449929D01*
X9719928Y-15464214D01*
X9691357Y-15464214D01*
X9662786Y-15449929D01*
X9648500Y-15435643D01*
X9634214Y-15407071D01*
X9619928Y-15349929D01*
X9619928Y-15278500D01*
X9634214Y-15221357D01*
X9648500Y-15192786D01*
X9662786Y-15178500D01*
X9691357Y-15164214D01*
X9919928Y-15464214D02*
X9919928Y-15264214D01*
X9919928Y-15292786D02*
X9934214Y-15278500D01*
X9962786Y-15264214D01*
X10005643Y-15264214D01*
X10034214Y-15278500D01*
X10048500Y-15307071D01*
X10048500Y-15464214D01*
X10048500Y-15307071D02*
X10062786Y-15278500D01*
X10091357Y-15264214D01*
X10134214Y-15264214D01*
X10162786Y-15278500D01*
X10177071Y-15307071D01*
X10177071Y-15464214D01*
X10319928Y-15464214D02*
X10319928Y-15264214D01*
X10319928Y-15292786D02*
X10334214Y-15278500D01*
X10362786Y-15264214D01*
X10405643Y-15264214D01*
X10434214Y-15278500D01*
X10448500Y-15307071D01*
X10448500Y-15464214D01*
X10448500Y-15307071D02*
X10462786Y-15278500D01*
X10491357Y-15264214D01*
X10534214Y-15264214D01*
X10562786Y-15278500D01*
X10577071Y-15307071D01*
X10577071Y-15464214D01*
X11162786Y-15149929D02*
X10905643Y-15535643D01*
X11548500Y-15164214D02*
X11577071Y-15164214D01*
X11605643Y-15178500D01*
X11619928Y-15192786D01*
X11634214Y-15221357D01*
X11648500Y-15278500D01*
X11648500Y-15349929D01*
X11634214Y-15407071D01*
X11619928Y-15435643D01*
X11605643Y-15449929D01*
X11577071Y-15464214D01*
X11548500Y-15464214D01*
X11519928Y-15449929D01*
X11505643Y-15435643D01*
X11491357Y-15407071D01*
X11477071Y-15349929D01*
X11477071Y-15278500D01*
X11491357Y-15221357D01*
X11505643Y-15192786D01*
X11519928Y-15178500D01*
X11548500Y-15164214D01*
X11777071Y-15435643D02*
X11791357Y-15449929D01*
X11777071Y-15464214D01*
X11762786Y-15449929D01*
X11777071Y-15435643D01*
X11777071Y-15464214D01*
X11977071Y-15164214D02*
X12005643Y-15164214D01*
X12034214Y-15178500D01*
X12048500Y-15192786D01*
X12062786Y-15221357D01*
X12077071Y-15278500D01*
X12077071Y-15349929D01*
X12062786Y-15407071D01*
X12048500Y-15435643D01*
X12034214Y-15449929D01*
X12005643Y-15464214D01*
X11977071Y-15464214D01*
X11948500Y-15449929D01*
X11934214Y-15435643D01*
X11919928Y-15407071D01*
X11905643Y-15349929D01*
X11905643Y-15278500D01*
X11919928Y-15221357D01*
X11934214Y-15192786D01*
X11948500Y-15178500D01*
X11977071Y-15164214D01*
X12177071Y-15164214D02*
X12362786Y-15164214D01*
X12262786Y-15278500D01*
X12305643Y-15278500D01*
X12334214Y-15292786D01*
X12348500Y-15307071D01*
X12362786Y-15335643D01*
X12362786Y-15407071D01*
X12348500Y-15435643D01*
X12334214Y-15449929D01*
X12305643Y-15464214D01*
X12219928Y-15464214D01*
X12191357Y-15449929D01*
X12177071Y-15435643D01*
X12505643Y-15464214D02*
X12562786Y-15464214D01*
X12591357Y-15449929D01*
X12605643Y-15435643D01*
X12634214Y-15392786D01*
X12648500Y-15335643D01*
X12648500Y-15221357D01*
X12634214Y-15192786D01*
X12619928Y-15178500D01*
X12591357Y-15164214D01*
X12534214Y-15164214D01*
X12505643Y-15178500D01*
X12491357Y-15192786D01*
X12477071Y-15221357D01*
X12477071Y-15292786D01*
X12491357Y-15321357D01*
X12505643Y-15335643D01*
X12534214Y-15349929D01*
X12591357Y-15349929D01*
X12619928Y-15335643D01*
X12634214Y-15321357D01*
X12648500Y-15292786D01*
X12762786Y-15164214D02*
X12762786Y-15221357D01*
X12877071Y-15164214D02*
X12877071Y-15221357D01*
X13319928Y-15578500D02*
X13305643Y-15564214D01*
X13277071Y-15521357D01*
X13262786Y-15492786D01*
X13248500Y-15449929D01*
X13234214Y-15378500D01*
X13234214Y-15321357D01*
X13248500Y-15249929D01*
X13262786Y-15207071D01*
X13277071Y-15178500D01*
X13305643Y-15135643D01*
X13319928Y-15121357D01*
X13562786Y-15264214D02*
X13562786Y-15464214D01*
X13491357Y-15149929D02*
X13419928Y-15364214D01*
X13605643Y-15364214D01*
X13691357Y-15164214D02*
X13877071Y-15164214D01*
X13777071Y-15278500D01*
X13819928Y-15278500D01*
X13848500Y-15292786D01*
X13862786Y-15307071D01*
X13877071Y-15335643D01*
X13877071Y-15407071D01*
X13862786Y-15435643D01*
X13848500Y-15449929D01*
X13819928Y-15464214D01*
X13734214Y-15464214D01*
X13705643Y-15449929D01*
X13691357Y-15435643D01*
X14234214Y-15464214D02*
X14234214Y-15164214D01*
X14362786Y-15464214D02*
X14362786Y-15307071D01*
X14348500Y-15278500D01*
X14319928Y-15264214D01*
X14277071Y-15264214D01*
X14248500Y-15278500D01*
X14234214Y-15292786D01*
X14548500Y-15464214D02*
X14519928Y-15449929D01*
X14505643Y-15435643D01*
X14491357Y-15407071D01*
X14491357Y-15321357D01*
X14505643Y-15292786D01*
X14519928Y-15278500D01*
X14548500Y-15264214D01*
X14591357Y-15264214D01*
X14619928Y-15278500D01*
X14634214Y-15292786D01*
X14648500Y-15321357D01*
X14648500Y-15407071D01*
X14634214Y-15435643D01*
X14619928Y-15449929D01*
X14591357Y-15464214D01*
X14548500Y-15464214D01*
X14819928Y-15464214D02*
X14791357Y-15449929D01*
X14777071Y-15421357D01*
X14777071Y-15164214D01*
X15048500Y-15449929D02*
X15019928Y-15464214D01*
X14962786Y-15464214D01*
X14934214Y-15449929D01*
X14919928Y-15421357D01*
X14919928Y-15307071D01*
X14934214Y-15278500D01*
X14962786Y-15264214D01*
X15019928Y-15264214D01*
X15048500Y-15278500D01*
X15062786Y-15307071D01*
X15062786Y-15335643D01*
X14919928Y-15364214D01*
X15177071Y-15449929D02*
X15205643Y-15464214D01*
X15262786Y-15464214D01*
X15291357Y-15449929D01*
X15305643Y-15421357D01*
X15305643Y-15407071D01*
X15291357Y-15378500D01*
X15262786Y-15364214D01*
X15219928Y-15364214D01*
X15191357Y-15349929D01*
X15177071Y-15321357D01*
X15177071Y-15307071D01*
X15191357Y-15278500D01*
X15219928Y-15264214D01*
X15262786Y-15264214D01*
X15291357Y-15278500D01*
X15405643Y-15578500D02*
X15419928Y-15564214D01*
X15448500Y-15521357D01*
X15462786Y-15492786D01*
X15477071Y-15449929D01*
X15491357Y-15378500D01*
X15491357Y-15321357D01*
X15477071Y-15249929D01*
X15462786Y-15207071D01*
X15448500Y-15178500D01*
X15419928Y-15135643D01*
X15405643Y-15121357D01*
X8583500Y-15674500D02*
X8583500Y-15774500D01*
X8533500Y-15724500D02*
X8633500Y-15724500D01*
X9077071Y-15860214D02*
X8905643Y-15860214D01*
X8991357Y-15860214D02*
X8991357Y-15560214D01*
X8962786Y-15603071D01*
X8934214Y-15631643D01*
X8905643Y-15645929D01*
X9205643Y-15831643D02*
X9219928Y-15845929D01*
X9205643Y-15860214D01*
X9191357Y-15845929D01*
X9205643Y-15831643D01*
X9205643Y-15860214D01*
X9405643Y-15560214D02*
X9434214Y-15560214D01*
X9462786Y-15574500D01*
X9477071Y-15588786D01*
X9491357Y-15617357D01*
X9505643Y-15674500D01*
X9505643Y-15745929D01*
X9491357Y-15803071D01*
X9477071Y-15831643D01*
X9462786Y-15845929D01*
X9434214Y-15860214D01*
X9405643Y-15860214D01*
X9377071Y-15845929D01*
X9362786Y-15831643D01*
X9348500Y-15803071D01*
X9334214Y-15745929D01*
X9334214Y-15674500D01*
X9348500Y-15617357D01*
X9362786Y-15588786D01*
X9377071Y-15574500D01*
X9405643Y-15560214D01*
X9691357Y-15560214D02*
X9719928Y-15560214D01*
X9748500Y-15574500D01*
X9762786Y-15588786D01*
X9777071Y-15617357D01*
X9791357Y-15674500D01*
X9791357Y-15745929D01*
X9777071Y-15803071D01*
X9762786Y-15831643D01*
X9748500Y-15845929D01*
X9719928Y-15860214D01*
X9691357Y-15860214D01*
X9662786Y-15845929D01*
X9648500Y-15831643D01*
X9634214Y-15803071D01*
X9619928Y-15745929D01*
X9619928Y-15674500D01*
X9634214Y-15617357D01*
X9648500Y-15588786D01*
X9662786Y-15574500D01*
X9691357Y-15560214D01*
X9919928Y-15860214D02*
X9919928Y-15660214D01*
X9919928Y-15688786D02*
X9934214Y-15674500D01*
X9962786Y-15660214D01*
X10005643Y-15660214D01*
X10034214Y-15674500D01*
X10048500Y-15703071D01*
X10048500Y-15860214D01*
X10048500Y-15703071D02*
X10062786Y-15674500D01*
X10091357Y-15660214D01*
X10134214Y-15660214D01*
X10162786Y-15674500D01*
X10177071Y-15703071D01*
X10177071Y-15860214D01*
X10319928Y-15860214D02*
X10319928Y-15660214D01*
X10319928Y-15688786D02*
X10334214Y-15674500D01*
X10362786Y-15660214D01*
X10405643Y-15660214D01*
X10434214Y-15674500D01*
X10448500Y-15703071D01*
X10448500Y-15860214D01*
X10448500Y-15703071D02*
X10462786Y-15674500D01*
X10491357Y-15660214D01*
X10534214Y-15660214D01*
X10562786Y-15674500D01*
X10577071Y-15703071D01*
X10577071Y-15860214D01*
X11162786Y-15545929D02*
X10905643Y-15931643D01*
X11548500Y-15560214D02*
X11577071Y-15560214D01*
X11605643Y-15574500D01*
X11619928Y-15588786D01*
X11634214Y-15617357D01*
X11648500Y-15674500D01*
X11648500Y-15745929D01*
X11634214Y-15803071D01*
X11619928Y-15831643D01*
X11605643Y-15845929D01*
X11577071Y-15860214D01*
X11548500Y-15860214D01*
X11519928Y-15845929D01*
X11505643Y-15831643D01*
X11491357Y-15803071D01*
X11477071Y-15745929D01*
X11477071Y-15674500D01*
X11491357Y-15617357D01*
X11505643Y-15588786D01*
X11519928Y-15574500D01*
X11548500Y-15560214D01*
X11777071Y-15831643D02*
X11791357Y-15845929D01*
X11777071Y-15860214D01*
X11762786Y-15845929D01*
X11777071Y-15831643D01*
X11777071Y-15860214D01*
X11977071Y-15560214D02*
X12005643Y-15560214D01*
X12034214Y-15574500D01*
X12048500Y-15588786D01*
X12062786Y-15617357D01*
X12077071Y-15674500D01*
X12077071Y-15745929D01*
X12062786Y-15803071D01*
X12048500Y-15831643D01*
X12034214Y-15845929D01*
X12005643Y-15860214D01*
X11977071Y-15860214D01*
X11948500Y-15845929D01*
X11934214Y-15831643D01*
X11919928Y-15803071D01*
X11905643Y-15745929D01*
X11905643Y-15674500D01*
X11919928Y-15617357D01*
X11934214Y-15588786D01*
X11948500Y-15574500D01*
X11977071Y-15560214D01*
X12177071Y-15560214D02*
X12362786Y-15560214D01*
X12262786Y-15674500D01*
X12305643Y-15674500D01*
X12334214Y-15688786D01*
X12348500Y-15703071D01*
X12362786Y-15731643D01*
X12362786Y-15803071D01*
X12348500Y-15831643D01*
X12334214Y-15845929D01*
X12305643Y-15860214D01*
X12219928Y-15860214D01*
X12191357Y-15845929D01*
X12177071Y-15831643D01*
X12505643Y-15860214D02*
X12562786Y-15860214D01*
X12591357Y-15845929D01*
X12605643Y-15831643D01*
X12634214Y-15788786D01*
X12648500Y-15731643D01*
X12648500Y-15617357D01*
X12634214Y-15588786D01*
X12619928Y-15574500D01*
X12591357Y-15560214D01*
X12534214Y-15560214D01*
X12505643Y-15574500D01*
X12491357Y-15588786D01*
X12477071Y-15617357D01*
X12477071Y-15688786D01*
X12491357Y-15717357D01*
X12505643Y-15731643D01*
X12534214Y-15745929D01*
X12591357Y-15745929D01*
X12619928Y-15731643D01*
X12634214Y-15717357D01*
X12648500Y-15688786D01*
X12762786Y-15560214D02*
X12762786Y-15617357D01*
X12877071Y-15560214D02*
X12877071Y-15617357D01*
X13319928Y-15974500D02*
X13305643Y-15960214D01*
X13277071Y-15917357D01*
X13262786Y-15888786D01*
X13248500Y-15845929D01*
X13234214Y-15774500D01*
X13234214Y-15717357D01*
X13248500Y-15645929D01*
X13262786Y-15603071D01*
X13277071Y-15574500D01*
X13305643Y-15531643D01*
X13319928Y-15517357D01*
X13419928Y-15588786D02*
X13434214Y-15574500D01*
X13462786Y-15560214D01*
X13534214Y-15560214D01*
X13562786Y-15574500D01*
X13577071Y-15588786D01*
X13591357Y-15617357D01*
X13591357Y-15645929D01*
X13577071Y-15688786D01*
X13405643Y-15860214D01*
X13591357Y-15860214D01*
X13948500Y-15860214D02*
X13948500Y-15560214D01*
X14077071Y-15860214D02*
X14077071Y-15703071D01*
X14062786Y-15674500D01*
X14034214Y-15660214D01*
X13991357Y-15660214D01*
X13962786Y-15674500D01*
X13948500Y-15688786D01*
X14262786Y-15860214D02*
X14234214Y-15845929D01*
X14219928Y-15831643D01*
X14205643Y-15803071D01*
X14205643Y-15717357D01*
X14219928Y-15688786D01*
X14234214Y-15674500D01*
X14262786Y-15660214D01*
X14305643Y-15660214D01*
X14334214Y-15674500D01*
X14348500Y-15688786D01*
X14362786Y-15717357D01*
X14362786Y-15803071D01*
X14348500Y-15831643D01*
X14334214Y-15845929D01*
X14305643Y-15860214D01*
X14262786Y-15860214D01*
X14534214Y-15860214D02*
X14505643Y-15845929D01*
X14491357Y-15817357D01*
X14491357Y-15560214D01*
X14762786Y-15845929D02*
X14734214Y-15860214D01*
X14677071Y-15860214D01*
X14648500Y-15845929D01*
X14634214Y-15817357D01*
X14634214Y-15703071D01*
X14648500Y-15674500D01*
X14677071Y-15660214D01*
X14734214Y-15660214D01*
X14762786Y-15674500D01*
X14777071Y-15703071D01*
X14777071Y-15731643D01*
X14634214Y-15760214D01*
X14891357Y-15845929D02*
X14919928Y-15860214D01*
X14977071Y-15860214D01*
X15005643Y-15845929D01*
X15019928Y-15817357D01*
X15019928Y-15803071D01*
X15005643Y-15774500D01*
X14977071Y-15760214D01*
X14934214Y-15760214D01*
X14905643Y-15745929D01*
X14891357Y-15717357D01*
X14891357Y-15703071D01*
X14905643Y-15674500D01*
X14934214Y-15660214D01*
X14977071Y-15660214D01*
X15005643Y-15674500D01*
X15119928Y-15974500D02*
X15134214Y-15960214D01*
X15162786Y-15917357D01*
X15177071Y-15888786D01*
X15191357Y-15845929D01*
X15205643Y-15774500D01*
X15205643Y-15717357D01*
X15191357Y-15645929D01*
X15177071Y-15603071D01*
X15162786Y-15574500D01*
X15134214Y-15531643D01*
X15119928Y-15517357D01*
X15662786Y-15974500D02*
X15648500Y-15960214D01*
X15619928Y-15917357D01*
X15605643Y-15888786D01*
X15591357Y-15845929D01*
X15577071Y-15774500D01*
X15577071Y-15717357D01*
X15591357Y-15645929D01*
X15605643Y-15603071D01*
X15619928Y-15574500D01*
X15648500Y-15531643D01*
X15662786Y-15517357D01*
X15777071Y-15660214D02*
X15777071Y-15860214D01*
X15777071Y-15688786D02*
X15791357Y-15674500D01*
X15819928Y-15660214D01*
X15862786Y-15660214D01*
X15891357Y-15674500D01*
X15905643Y-15703071D01*
X15905643Y-15860214D01*
X16091357Y-15860214D02*
X16062786Y-15845929D01*
X16048500Y-15831643D01*
X16034214Y-15803071D01*
X16034214Y-15717357D01*
X16048500Y-15688786D01*
X16062786Y-15674500D01*
X16091357Y-15660214D01*
X16134214Y-15660214D01*
X16162786Y-15674500D01*
X16177071Y-15688786D01*
X16191357Y-15717357D01*
X16191357Y-15803071D01*
X16177071Y-15831643D01*
X16162786Y-15845929D01*
X16134214Y-15860214D01*
X16091357Y-15860214D01*
X16277071Y-15660214D02*
X16391357Y-15660214D01*
X16319928Y-15560214D02*
X16319928Y-15817357D01*
X16334214Y-15845929D01*
X16362786Y-15860214D01*
X16391357Y-15860214D01*
X16719928Y-15660214D02*
X16719928Y-15960214D01*
X16719928Y-15674500D02*
X16748500Y-15660214D01*
X16805643Y-15660214D01*
X16834214Y-15674500D01*
X16848500Y-15688786D01*
X16862786Y-15717357D01*
X16862786Y-15803071D01*
X16848500Y-15831643D01*
X16834214Y-15845929D01*
X16805643Y-15860214D01*
X16748500Y-15860214D01*
X16719928Y-15845929D01*
X17034214Y-15860214D02*
X17005643Y-15845929D01*
X16991357Y-15817357D01*
X16991357Y-15560214D01*
X17277071Y-15860214D02*
X17277071Y-15703071D01*
X17262786Y-15674500D01*
X17234214Y-15660214D01*
X17177071Y-15660214D01*
X17148500Y-15674500D01*
X17277071Y-15845929D02*
X17248500Y-15860214D01*
X17177071Y-15860214D01*
X17148500Y-15845929D01*
X17134214Y-15817357D01*
X17134214Y-15788786D01*
X17148500Y-15760214D01*
X17177071Y-15745929D01*
X17248500Y-15745929D01*
X17277071Y-15731643D01*
X17377071Y-15660214D02*
X17491357Y-15660214D01*
X17419928Y-15560214D02*
X17419928Y-15817357D01*
X17434214Y-15845929D01*
X17462786Y-15860214D01*
X17491357Y-15860214D01*
X17705643Y-15845929D02*
X17677071Y-15860214D01*
X17619928Y-15860214D01*
X17591357Y-15845929D01*
X17577071Y-15817357D01*
X17577071Y-15703071D01*
X17591357Y-15674500D01*
X17619928Y-15660214D01*
X17677071Y-15660214D01*
X17705643Y-15674500D01*
X17719928Y-15703071D01*
X17719928Y-15731643D01*
X17577071Y-15760214D01*
X17977071Y-15860214D02*
X17977071Y-15560214D01*
X17977071Y-15845929D02*
X17948500Y-15860214D01*
X17891357Y-15860214D01*
X17862786Y-15845929D01*
X17848500Y-15831643D01*
X17834214Y-15803071D01*
X17834214Y-15717357D01*
X17848500Y-15688786D01*
X17862786Y-15674500D01*
X17891357Y-15660214D01*
X17948500Y-15660214D01*
X17977071Y-15674500D01*
X18091357Y-15974500D02*
X18105643Y-15960214D01*
X18134214Y-15917357D01*
X18148500Y-15888786D01*
X18162786Y-15845929D01*
X18177071Y-15774500D01*
X18177071Y-15717357D01*
X18162786Y-15645929D01*
X18148500Y-15603071D01*
X18134214Y-15574500D01*
X18105643Y-15531643D01*
X18091357Y-15517357D01*
M02*
