M48
; DRILL file {KiCad (5.1.8)-1} date 06/16/21 10:38:19
; FORMAT={-:-/ absolute / metric / decimal}
; #@! TF.CreationDate,2021-06-16T10:38:19+02:00
; #@! TF.GenerationSoftware,Kicad,Pcbnew,(5.1.8)-1
FMAT,2
METRIC
T1C0.400
T2C1.000
T3C1.000
%
G90
G05
T1
X112.97Y-99.0
X114.3Y-96.52
T2
X127.0Y-95.25
X127.0Y-97.79
X127.0Y-100.33
X127.0Y-102.87
X127.0Y-105.41
X127.0Y-107.95
X127.0Y-110.49
X127.0Y-113.03
X127.0Y-115.57
X127.0Y-118.11
X127.0Y-120.65
X127.0Y-123.19
X127.0Y-125.73
X127.0Y-128.27
X127.0Y-130.81
X142.24Y-95.25
X142.24Y-97.79
X142.24Y-100.33
X142.24Y-102.87
X142.24Y-105.41
X142.24Y-107.95
X142.24Y-110.49
X142.24Y-113.03
X142.24Y-115.57
X142.24Y-118.11
X142.24Y-120.65
X142.24Y-123.19
X142.24Y-125.73
X142.24Y-128.27
X142.24Y-130.81
X105.13Y-94.35
X107.67Y-94.35
X105.13Y-99.0
X107.67Y-99.0
X95.25Y-111.76
X95.25Y-114.3
X95.25Y-116.84
X95.25Y-119.38
X95.25Y-121.92
X95.25Y-124.46
X95.25Y-127.0
X95.25Y-129.54
X95.25Y-132.08
T3
X117.18Y-81.28
X121.58Y-81.28
T0
M30
