%TF.GenerationSoftware,KiCad,Pcbnew,(5.1.8)-1*%
%TF.CreationDate,2021-06-13T18:19:16+02:00*%
%TF.ProjectId,p_dale_ble,70e96461-6c65-45f6-926c-652e6b696361,rev?*%
%TF.SameCoordinates,Original*%
%TF.FileFunction,Legend,Top*%
%TF.FilePolarity,Positive*%
%FSLAX46Y46*%
G04 Gerber Fmt 4.6, Leading zero omitted, Abs format (unit mm)*
G04 Created by KiCad (PCBNEW (5.1.8)-1) date 2021-06-13 18:19:16*
%MOMM*%
%LPD*%
G01*
G04 APERTURE LIST*
%ADD10C,0.150000*%
%ADD11C,0.100000*%
%ADD12C,0.300000*%
%ADD13C,0.120000*%
G04 APERTURE END LIST*
D10*
X104290952Y-102052380D02*
X103957619Y-101576190D01*
X103719523Y-102052380D02*
X103719523Y-101052380D01*
X104100476Y-101052380D01*
X104195714Y-101100000D01*
X104243333Y-101147619D01*
X104290952Y-101242857D01*
X104290952Y-101385714D01*
X104243333Y-101480952D01*
X104195714Y-101528571D01*
X104100476Y-101576190D01*
X103719523Y-101576190D01*
X104719523Y-102052380D02*
X104719523Y-101385714D01*
X104719523Y-101052380D02*
X104671904Y-101100000D01*
X104719523Y-101147619D01*
X104767142Y-101100000D01*
X104719523Y-101052380D01*
X104719523Y-101147619D01*
X105624285Y-101385714D02*
X105624285Y-102195238D01*
X105576666Y-102290476D01*
X105529047Y-102338095D01*
X105433809Y-102385714D01*
X105290952Y-102385714D01*
X105195714Y-102338095D01*
X105624285Y-102004761D02*
X105529047Y-102052380D01*
X105338571Y-102052380D01*
X105243333Y-102004761D01*
X105195714Y-101957142D01*
X105148095Y-101861904D01*
X105148095Y-101576190D01*
X105195714Y-101480952D01*
X105243333Y-101433333D01*
X105338571Y-101385714D01*
X105529047Y-101385714D01*
X105624285Y-101433333D01*
X106100476Y-102052380D02*
X106100476Y-101052380D01*
X106529047Y-102052380D02*
X106529047Y-101528571D01*
X106481428Y-101433333D01*
X106386190Y-101385714D01*
X106243333Y-101385714D01*
X106148095Y-101433333D01*
X106100476Y-101480952D01*
X106862380Y-101385714D02*
X107243333Y-101385714D01*
X107005238Y-101052380D02*
X107005238Y-101909523D01*
X107052857Y-102004761D01*
X107148095Y-102052380D01*
X107243333Y-102052380D01*
X104719523Y-91892380D02*
X104243333Y-91892380D01*
X104243333Y-90892380D01*
X105433809Y-91844761D02*
X105338571Y-91892380D01*
X105148095Y-91892380D01*
X105052857Y-91844761D01*
X105005238Y-91749523D01*
X105005238Y-91368571D01*
X105052857Y-91273333D01*
X105148095Y-91225714D01*
X105338571Y-91225714D01*
X105433809Y-91273333D01*
X105481428Y-91368571D01*
X105481428Y-91463809D01*
X105005238Y-91559047D01*
X105767142Y-91225714D02*
X106148095Y-91225714D01*
X105910000Y-91892380D02*
X105910000Y-91035238D01*
X105957619Y-90940000D01*
X106052857Y-90892380D01*
X106148095Y-90892380D01*
X106338571Y-91225714D02*
X106719523Y-91225714D01*
X106481428Y-90892380D02*
X106481428Y-91749523D01*
X106529047Y-91844761D01*
X106624285Y-91892380D01*
X106719523Y-91892380D01*
X134072380Y-118919047D02*
X134786666Y-118919047D01*
X134929523Y-118966666D01*
X135024761Y-119061904D01*
X135072380Y-119204761D01*
X135072380Y-119300000D01*
X135072380Y-117966666D02*
X135072380Y-118442857D01*
X134072380Y-118442857D01*
X134977142Y-117061904D02*
X135024761Y-117109523D01*
X135072380Y-117252380D01*
X135072380Y-117347619D01*
X135024761Y-117490476D01*
X134929523Y-117585714D01*
X134834285Y-117633333D01*
X134643809Y-117680952D01*
X134500952Y-117680952D01*
X134310476Y-117633333D01*
X134215238Y-117585714D01*
X134120000Y-117490476D01*
X134072380Y-117347619D01*
X134072380Y-117252380D01*
X134120000Y-117109523D01*
X134167619Y-117061904D01*
X134072380Y-116347619D02*
X134786666Y-116347619D01*
X134929523Y-116395238D01*
X135024761Y-116490476D01*
X135072380Y-116633333D01*
X135072380Y-116728571D01*
X135072380Y-115395238D02*
X135072380Y-115871428D01*
X134072380Y-115871428D01*
X134977142Y-114490476D02*
X135024761Y-114538095D01*
X135072380Y-114680952D01*
X135072380Y-114776190D01*
X135024761Y-114919047D01*
X134929523Y-115014285D01*
X134834285Y-115061904D01*
X134643809Y-115109523D01*
X134500952Y-115109523D01*
X134310476Y-115061904D01*
X134215238Y-115014285D01*
X134120000Y-114919047D01*
X134072380Y-114776190D01*
X134072380Y-114680952D01*
X134120000Y-114538095D01*
X134167619Y-114490476D01*
X134072380Y-113776190D02*
X134786666Y-113776190D01*
X134929523Y-113823809D01*
X135024761Y-113919047D01*
X135072380Y-114061904D01*
X135072380Y-114157142D01*
X135072380Y-112823809D02*
X135072380Y-113300000D01*
X134072380Y-113300000D01*
X134977142Y-111919047D02*
X135024761Y-111966666D01*
X135072380Y-112109523D01*
X135072380Y-112204761D01*
X135024761Y-112347619D01*
X134929523Y-112442857D01*
X134834285Y-112490476D01*
X134643809Y-112538095D01*
X134500952Y-112538095D01*
X134310476Y-112490476D01*
X134215238Y-112442857D01*
X134120000Y-112347619D01*
X134072380Y-112204761D01*
X134072380Y-112109523D01*
X134120000Y-111966666D01*
X134167619Y-111919047D01*
X134072380Y-111204761D02*
X134786666Y-111204761D01*
X134929523Y-111252380D01*
X135024761Y-111347619D01*
X135072380Y-111490476D01*
X135072380Y-111585714D01*
X135072380Y-110252380D02*
X135072380Y-110728571D01*
X134072380Y-110728571D01*
X134977142Y-109347619D02*
X135024761Y-109395238D01*
X135072380Y-109538095D01*
X135072380Y-109633333D01*
X135024761Y-109776190D01*
X134929523Y-109871428D01*
X134834285Y-109919047D01*
X134643809Y-109966666D01*
X134500952Y-109966666D01*
X134310476Y-109919047D01*
X134215238Y-109871428D01*
X134120000Y-109776190D01*
X134072380Y-109633333D01*
X134072380Y-109538095D01*
X134120000Y-109395238D01*
X134167619Y-109347619D01*
D11*
G36*
X137160000Y-133350000D02*
G01*
X132080000Y-133350000D01*
X132080000Y-129540000D01*
X137160000Y-129540000D01*
X137160000Y-133350000D01*
G37*
X137160000Y-133350000D02*
X132080000Y-133350000D01*
X132080000Y-129540000D01*
X137160000Y-129540000D01*
X137160000Y-133350000D01*
D12*
X92972857Y-83707857D02*
X93187142Y-83779285D01*
X93258571Y-83850714D01*
X93330000Y-83993571D01*
X93330000Y-84207857D01*
X93258571Y-84350714D01*
X93187142Y-84422142D01*
X93044285Y-84493571D01*
X92472857Y-84493571D01*
X92472857Y-82993571D01*
X92972857Y-82993571D01*
X93115714Y-83065000D01*
X93187142Y-83136428D01*
X93258571Y-83279285D01*
X93258571Y-83422142D01*
X93187142Y-83565000D01*
X93115714Y-83636428D01*
X92972857Y-83707857D01*
X92472857Y-83707857D01*
X93901428Y-84065000D02*
X94615714Y-84065000D01*
X93758571Y-84493571D02*
X94258571Y-82993571D01*
X94758571Y-84493571D01*
X95258571Y-84493571D02*
X95258571Y-82993571D01*
X95258571Y-83707857D02*
X96115714Y-83707857D01*
X96115714Y-84493571D02*
X96115714Y-82993571D01*
X96830000Y-84493571D02*
X96830000Y-82993571D01*
X97544285Y-84493571D02*
X97544285Y-82993571D01*
X98401428Y-84493571D01*
X98401428Y-82993571D01*
X100258571Y-84493571D02*
X100258571Y-82993571D01*
X100758571Y-84065000D01*
X101258571Y-82993571D01*
X101258571Y-84493571D01*
X102615714Y-84493571D02*
X102615714Y-83707857D01*
X102544285Y-83565000D01*
X102401428Y-83493571D01*
X102115714Y-83493571D01*
X101972857Y-83565000D01*
X102615714Y-84422142D02*
X102472857Y-84493571D01*
X102115714Y-84493571D01*
X101972857Y-84422142D01*
X101901428Y-84279285D01*
X101901428Y-84136428D01*
X101972857Y-83993571D01*
X102115714Y-83922142D01*
X102472857Y-83922142D01*
X102615714Y-83850714D01*
X103115714Y-83493571D02*
X103687142Y-83493571D01*
X103330000Y-82993571D02*
X103330000Y-84279285D01*
X103401428Y-84422142D01*
X103544285Y-84493571D01*
X103687142Y-84493571D01*
X104187142Y-84493571D02*
X104187142Y-82993571D01*
X104830000Y-84493571D02*
X104830000Y-83707857D01*
X104758571Y-83565000D01*
X104615714Y-83493571D01*
X104401428Y-83493571D01*
X104258571Y-83565000D01*
X104187142Y-83636428D01*
X105544285Y-84493571D02*
X105544285Y-83493571D01*
X105544285Y-82993571D02*
X105472857Y-83065000D01*
X105544285Y-83136428D01*
X105615714Y-83065000D01*
X105544285Y-82993571D01*
X105544285Y-83136428D01*
X106830000Y-84422142D02*
X106687142Y-84493571D01*
X106401428Y-84493571D01*
X106258571Y-84422142D01*
X106187142Y-84279285D01*
X106187142Y-83707857D01*
X106258571Y-83565000D01*
X106401428Y-83493571D01*
X106687142Y-83493571D01*
X106830000Y-83565000D01*
X106901428Y-83707857D01*
X106901428Y-83850714D01*
X106187142Y-83993571D01*
X108187142Y-83493571D02*
X108187142Y-84493571D01*
X107544285Y-83493571D02*
X107544285Y-84279285D01*
X107615714Y-84422142D01*
X107758571Y-84493571D01*
X107972857Y-84493571D01*
X108115714Y-84422142D01*
X108187142Y-84350714D01*
X93937142Y-86257857D02*
X93437142Y-86257857D01*
X93437142Y-87043571D02*
X93437142Y-85543571D01*
X94151428Y-85543571D01*
X94937142Y-87043571D02*
X94794285Y-86972142D01*
X94722857Y-86829285D01*
X94722857Y-85543571D01*
X95508571Y-87043571D02*
X95508571Y-86043571D01*
X95508571Y-85543571D02*
X95437142Y-85615000D01*
X95508571Y-85686428D01*
X95580000Y-85615000D01*
X95508571Y-85543571D01*
X95508571Y-85686428D01*
X96222857Y-86043571D02*
X96222857Y-87543571D01*
X96222857Y-86115000D02*
X96365714Y-86043571D01*
X96651428Y-86043571D01*
X96794285Y-86115000D01*
X96865714Y-86186428D01*
X96937142Y-86329285D01*
X96937142Y-86757857D01*
X96865714Y-86900714D01*
X96794285Y-86972142D01*
X96651428Y-87043571D01*
X96365714Y-87043571D01*
X96222857Y-86972142D01*
X98722857Y-87043571D02*
X98722857Y-85543571D01*
X99294285Y-85543571D01*
X99437142Y-85615000D01*
X99508571Y-85686428D01*
X99580000Y-85829285D01*
X99580000Y-86043571D01*
X99508571Y-86186428D01*
X99437142Y-86257857D01*
X99294285Y-86329285D01*
X98722857Y-86329285D01*
X100865714Y-87043571D02*
X100865714Y-86257857D01*
X100794285Y-86115000D01*
X100651428Y-86043571D01*
X100365714Y-86043571D01*
X100222857Y-86115000D01*
X100865714Y-86972142D02*
X100722857Y-87043571D01*
X100365714Y-87043571D01*
X100222857Y-86972142D01*
X100151428Y-86829285D01*
X100151428Y-86686428D01*
X100222857Y-86543571D01*
X100365714Y-86472142D01*
X100722857Y-86472142D01*
X100865714Y-86400714D01*
X102222857Y-86043571D02*
X102222857Y-87257857D01*
X102151428Y-87400714D01*
X102080000Y-87472142D01*
X101937142Y-87543571D01*
X101722857Y-87543571D01*
X101580000Y-87472142D01*
X102222857Y-86972142D02*
X102080000Y-87043571D01*
X101794285Y-87043571D01*
X101651428Y-86972142D01*
X101580000Y-86900714D01*
X101508571Y-86757857D01*
X101508571Y-86329285D01*
X101580000Y-86186428D01*
X101651428Y-86115000D01*
X101794285Y-86043571D01*
X102080000Y-86043571D01*
X102222857Y-86115000D01*
X103508571Y-86972142D02*
X103365714Y-87043571D01*
X103080000Y-87043571D01*
X102937142Y-86972142D01*
X102865714Y-86829285D01*
X102865714Y-86257857D01*
X102937142Y-86115000D01*
X103080000Y-86043571D01*
X103365714Y-86043571D01*
X103508571Y-86115000D01*
X103580000Y-86257857D01*
X103580000Y-86400714D01*
X102865714Y-86543571D01*
X105222857Y-86043571D02*
X105580000Y-87043571D01*
X105937142Y-86043571D01*
X107294285Y-87043571D02*
X106437142Y-87043571D01*
X106865714Y-87043571D02*
X106865714Y-85543571D01*
X106722857Y-85757857D01*
X106580000Y-85900714D01*
X106437142Y-85972142D01*
D13*
%TO.C,U1*%
X96580000Y-110430000D02*
X93920000Y-110430000D01*
X96580000Y-130810000D02*
X96580000Y-110430000D01*
X93920000Y-130810000D02*
X93920000Y-110430000D01*
X96580000Y-130810000D02*
X93920000Y-130810000D01*
X96580000Y-132080000D02*
X96580000Y-133410000D01*
X96580000Y-133410000D02*
X95250000Y-133410000D01*
%TO.C,J3*%
X115470000Y-75370000D02*
X123290000Y-75370000D01*
X121490000Y-84690000D02*
X121490000Y-85120000D01*
X115470000Y-75370000D02*
X115470000Y-77320000D01*
X115470000Y-79540000D02*
X115470000Y-82770000D01*
X117270000Y-84690000D02*
X116190000Y-84690000D01*
X122570000Y-84690000D02*
X121490000Y-84690000D01*
X123290000Y-79540000D02*
X123290000Y-82770000D01*
X123290000Y-75370000D02*
X123290000Y-77320000D01*
%TO.C,A1*%
X143640000Y-91310000D02*
X125600000Y-91310000D01*
X143640000Y-134750000D02*
X143640000Y-91310000D01*
X125600000Y-134750000D02*
X143640000Y-134750000D01*
X128270000Y-132080000D02*
X125600000Y-132080000D01*
X128270000Y-96520000D02*
X128270000Y-132080000D01*
X128270000Y-96520000D02*
X125600000Y-96520000D01*
X140970000Y-132080000D02*
X143640000Y-132080000D01*
X140970000Y-93980000D02*
X140970000Y-132080000D01*
X140970000Y-93980000D02*
X143640000Y-93980000D01*
X125600000Y-91310000D02*
X125600000Y-93980000D01*
X125600000Y-96520000D02*
X125600000Y-134750000D01*
X128270000Y-93980000D02*
X125600000Y-93980000D01*
X128270000Y-96520000D02*
X128270000Y-93980000D01*
%TO.C,J2*%
X109000000Y-97670000D02*
X109000000Y-99000000D01*
X107670000Y-97670000D02*
X109000000Y-97670000D01*
X106400000Y-97670000D02*
X106400000Y-100330000D01*
X106400000Y-100330000D02*
X103800000Y-100330000D01*
X106400000Y-97670000D02*
X103800000Y-97670000D01*
X103800000Y-97670000D02*
X103800000Y-100330000D01*
%TO.C,J1*%
X109000000Y-93020000D02*
X109000000Y-94350000D01*
X107670000Y-93020000D02*
X109000000Y-93020000D01*
X106400000Y-93020000D02*
X106400000Y-95680000D01*
X106400000Y-95680000D02*
X103800000Y-95680000D01*
X106400000Y-93020000D02*
X103800000Y-93020000D01*
X103800000Y-93020000D02*
X103800000Y-95680000D01*
%TO.C,U1*%
D10*
X94488095Y-133862380D02*
X94488095Y-134671904D01*
X94535714Y-134767142D01*
X94583333Y-134814761D01*
X94678571Y-134862380D01*
X94869047Y-134862380D01*
X94964285Y-134814761D01*
X95011904Y-134767142D01*
X95059523Y-134671904D01*
X95059523Y-133862380D01*
X96059523Y-134862380D02*
X95488095Y-134862380D01*
X95773809Y-134862380D02*
X95773809Y-133862380D01*
X95678571Y-134005238D01*
X95583333Y-134100476D01*
X95488095Y-134148095D01*
%TO.C,J3*%
X119046666Y-85732380D02*
X119046666Y-86446666D01*
X118999047Y-86589523D01*
X118903809Y-86684761D01*
X118760952Y-86732380D01*
X118665714Y-86732380D01*
X119427619Y-85732380D02*
X120046666Y-85732380D01*
X119713333Y-86113333D01*
X119856190Y-86113333D01*
X119951428Y-86160952D01*
X119999047Y-86208571D01*
X120046666Y-86303809D01*
X120046666Y-86541904D01*
X119999047Y-86637142D01*
X119951428Y-86684761D01*
X119856190Y-86732380D01*
X119570476Y-86732380D01*
X119475238Y-86684761D01*
X119427619Y-86637142D01*
%TO.C,A1*%
X133905714Y-136056666D02*
X134381904Y-136056666D01*
X133810476Y-136342380D02*
X134143809Y-135342380D01*
X134477142Y-136342380D01*
X135334285Y-136342380D02*
X134762857Y-136342380D01*
X135048571Y-136342380D02*
X135048571Y-135342380D01*
X134953333Y-135485238D01*
X134858095Y-135580476D01*
X134762857Y-135628095D01*
%TD*%
M02*
